<!DOCTYPE svg PUBLIC "-//W3C//DTD SVG 1.1//EN" "http://www.w3.org/Graphics/SVG/1.1/DTD/svg11.dtd">
<!-- Uploaded to: SVG Repo, www.svgrepo.com, Transformed by: SVG Repo Mixer Tools -->
<svg width="800px" height="800px" viewBox="-3.21 0 54.965 54.965" xmlns="http://www.w3.org/2000/svg" fill="#000000">
<g id="SVGRepo_bgCarrier" stroke-width="0"/>
<g id="SVGRepo_tracerCarrier" stroke-linecap="round" stroke-linejoin="round"/>
<g id="SVGRepo_iconCarrier"> <g id="Group_118" data-name="Group 118" transform="translate(-185.686 -75.925)"> <g id="Group_113" data-name="Group 113"> <path id="Path_440" data-name="Path 440" d="M228.455,121.908c0-10.118-1.35-18.539-14.779-20.364a7.621,7.621,0,0,1-11.914,0c-13.414,1.827-14.78,10.247-14.78,20.364" fill="#ffffff" stroke="#021618" stroke-linecap="round" stroke-linejoin="round" stroke-width="2.592"/> </g> <g id="Group_114" data-name="Group 114"> <path id="Path_441" data-name="Path 441" d="M215.955,87.666c0,5.768-4.087,10.812-8.228,10.812s-7.949-5.051-8.229-10.812,3.139-10.445,8.229-10.445S215.955,81.9,215.955,87.666Z" fill="#ffffff"/> <path id="Path_442" data-name="Path 442" d="M215.955,87.666c0,5.768-4.087,10.812-8.228,10.812s-7.949-5.051-8.229-10.812,3.139-10.445,8.229-10.445S215.955,81.9,215.955,87.666Z" fill="none" stroke="#021618" stroke-linecap="round" stroke-linejoin="round" stroke-width="2.592"/> </g> <g id="Group_115" data-name="Group 115"> <path id="Path_443" data-name="Path 443" d="M194.815,112.1c-1.44,3.67-1.4,9.254-1.4,13.1a38.56,38.56,0,0,0,14.306,2.754,37.807,37.807,0,0,0,14.306-2.809c0-3.49-.03-8.517-1.048-12.01" fill="#ffffff" stroke="#021618" stroke-linecap="round" stroke-linejoin="round" stroke-width="2.592"/> </g> <g id="Group_116" data-name="Group 116"> <path id="Path_444" data-name="Path 444" d="M186.982,121.908c0,.71,3.008,2.373,6.4,2.373" fill="#ffffff" stroke="#021618" stroke-linecap="round" stroke-linejoin="round" stroke-width="2.592"/> </g> <g id="Group_117" data-name="Group 117"> <path id="Path_445" data-name="Path 445" d="M228.455,121.908c0,.71-3.008,2.373-6.4,2.373" fill="#ffffff" stroke="#021618" stroke-linecap="round" stroke-linejoin="round" stroke-width="2.592"/> </g> <path id="Path_446" data-name="Path 446" d="M232.386,111.019H217.962a.8.8,0,0,0-.8.8v17.232a.8.8,0,0,0,.8.8h14.424a.8.8,0,0,0,.8-.8v-2.7h0V111.82A.8.8,0,0,0,232.386,111.019Z" fill="#ffffff" stroke="#021618" stroke-linecap="round" stroke-linejoin="round" stroke-width="2.074"/> <path id="Path_447" data-name="Path 447" d="M225.174,113.916" fill="#ffffff" stroke="#c9234a" stroke-linecap="round" stroke-linejoin="round" stroke-width="1.555"/> <path id="Path_448" data-name="Path 448" d="M225.174,113.916" fill="#ffffff" stroke="#c9234a" stroke-linecap="round" stroke-linejoin="round" stroke-width="1.555"/> <path id="Path_449" data-name="Path 449" d="M227.249,116.753a2.077,2.077,0,0,0-2.076,2.076,2.076,2.076,0,1,0-4.151,0,4.3,4.3,0,0,0,1.767,3.235c.946.866,2.356,2,2.356,2s1.644-1.3,2.412-2a4.391,4.391,0,0,0,1.768-3.235A2.076,2.076,0,0,0,227.249,116.753Z" fill="#ffffff" stroke="#021618" stroke-linejoin="round" stroke-width="1.555"/> <path id="Path_450" data-name="Path 450" d="M226.653,109.869v-.713a1.479,1.479,0,0,0-2.958,0v.713h-3.113v2.3h9.184v-2.3Z" fill="#ffffff" stroke="#021618" stroke-linecap="round" stroke-linejoin="round" stroke-width="1.555"/> </g> </g>
</svg>