<svg xmlns="http://www.w3.org/2000/svg" enable-background="new 0 0 96 96" viewBox="0 0 96 96" id="lake-baikal">
  <path d="M1.7661,66.8839h92.4678v-1.9674H63.512c-0.5156-9.1739-8.1197-16.4847-17.4198-16.4847s-16.9042,7.3107-17.4198,16.4847
		H1.7661V66.8839z M46.0922,50.3992c8.2151,0,14.94,6.4286,15.4524,14.5173H30.6397C31.1522,56.8279,37.877,50.3992,46.0922,50.3992
		z"></path>
  <rect width="1.967" height="8.675" x="45.109" y="36.009"></rect>
  <rect width="1.967" height="8.675" x="36.355" y="37.464" transform="rotate(159.996 37.337 41.799)"></rect>
  <rect width="8.674" height="1.967" x="25.271" y="45.179" transform="rotate(49.998 29.61 46.166)"></rect>
  <rect width="8.674" height="1.968" x="19.5" y="51.92" transform="rotate(30 23.84 52.907)"></rect>
  <rect width="8.674" height="1.968" x="16.382" y="60.23" transform="rotate(-169.997 20.718 61.215)"></rect>
  <rect width="1.968" height="8.674" x="70.066" y="57.375" transform="rotate(79.991 71.048 61.711)"></rect>
  <rect width="1.968" height="8.674" x="67.113" y="49.005" transform="rotate(60.007 68.095 53.34)"></rect>
  <rect width="1.967" height="8.674" x="61.476" y="42.151" transform="rotate(-140.014 62.458 46.488)"></rect>
  <rect width="8.675" height="1.967" x="50.481" y="40.991" transform="rotate(109.999 54.818 41.975)"></rect>
  <path d="M8.371 87.7438c2.6538 0 5.0741-.7608 6.6049-2.0318 1.5308 1.2709 3.9511 2.0318 6.6049 2.0318 2.6533 0 5.0736-.7608 6.6044-2.0318 1.5308 1.2709 3.9511 2.0318 6.6049 2.0318 2.6538 0 5.0741-.7608 6.6049-2.0318 1.5308 1.2709 3.9511 2.0318 6.6049 2.0318s5.0741-.7608 6.6049-2.0318c1.5308 1.2709 3.9511 2.0318 6.6049 2.0318 2.6538 0 5.0741-.7608 6.6049-2.0318 1.5308 1.2709 3.9511 2.0318 6.6044 2.0318 2.6538 0 5.0741-.7608 6.6049-2.0318 1.5308 1.2709 3.9511 2.0318 6.6049 2.0318 3.1538 0 5.9781-1.074 7.371-2.8032l-1.5322-1.2344c-1.013 1.2575-3.3046 2.0702-5.8388 2.0702-5.1772 0-6.2479-2.7562-6.6049-3.0212-.4333.3216-1.4369 3.0212-6.6049 3.0212-5.1566 0-6.26-2.7656-6.6044-3.0212-.4333.3216-1.4369 3.0212-6.6049 3.0212-5.1772 0-6.2479-2.7562-6.6049-3.0212C54.1716 83.0768 53.168 85.7764 48 85.7764c-5.1772 0-6.2479-2.7562-6.6049-3.0212-.4333.3216-1.4369 3.0212-6.6049 3.0212-5.1772 0-6.2479-2.7562-6.6049-3.0212-.4333.3216-1.4364 3.0212-6.6044 3.0212-5.1772 0-6.2479-2.7562-6.6049-3.0212-.4333.3216-1.4369 3.0212-6.6049 3.0212-2.5342 0-4.8258-.8127-5.8388-2.0702L1 84.9407C2.3929 86.6698 5.2172 87.7438 8.371 87.7438zM8.371 93.7757c2.6538 0 5.0741-.7608 6.6049-2.0318 1.5308 1.2709 3.9511 2.0318 6.6049 2.0318 2.6533 0 5.0736-.7608 6.6044-2.0318 1.5308 1.2709 3.9511 2.0318 6.6049 2.0318 2.6538 0 5.0741-.7608 6.6049-2.0318 1.5308 1.2709 3.9511 2.0318 6.6049 2.0318s5.0741-.7608 6.6049-2.0318c1.5308 1.2709 3.9511 2.0318 6.6049 2.0318 2.6538 0 5.0741-.7608 6.6049-2.0318 1.5308 1.2709 3.9511 2.0318 6.6044 2.0318 2.6538 0 5.0741-.7608 6.6049-2.0318 1.5308 1.2709 3.9511 2.0318 6.6049 2.0318 3.1538 0 5.9781-1.074 7.371-2.8032l-1.5322-1.2344c-1.013 1.2575-3.3046 2.0702-5.8388 2.0702-5.1772 0-6.2479-2.7562-6.6049-3.0212-.4333.3216-1.4369 3.0212-6.6049 3.0212-5.1566 0-6.26-2.7656-6.6044-3.0212-.4333.3216-1.4369 3.0212-6.6049 3.0212-2.5342 0-4.8258-.8127-5.8388-2.0702l-.7661-.951C54.1716 89.1087 53.168 91.8083 48 91.8083c-5.1772 0-6.2479-2.7562-6.6049-3.0212-.4333.3216-1.4369 3.0212-6.6049 3.0212-5.1772 0-6.2479-2.7562-6.6049-3.0212-.4333.3216-1.4364 3.0212-6.6044 3.0212-5.1772 0-6.2479-2.7562-6.6049-3.0212-.4333.3216-1.4369 3.0212-6.6049 3.0212-2.5342 0-4.8258-.8127-5.8388-2.0702L1 90.9725C2.3929 92.7017 5.2172 93.7757 8.371 93.7757zM8.371 81.6053c2.6538 0 5.0741-.7608 6.6049-2.0318 1.5308 1.2709 3.9511 2.0318 6.6049 2.0318 2.6533 0 5.0736-.7608 6.6044-2.0318 1.5308 1.2709 3.9511 2.0318 6.6049 2.0318 2.6538 0 5.0741-.7608 6.6049-2.0318 1.5308 1.2709 3.9511 2.0318 6.6049 2.0318s5.0741-.7608 6.6049-2.0318c1.5308 1.2709 3.9511 2.0318 6.6049 2.0318 2.6538 0 5.0741-.7608 6.6049-2.0318 1.5308 1.2709 3.9511 2.0318 6.6044 2.0318 2.6538 0 5.0741-.7608 6.6049-2.0318 1.5308 1.2709 3.9511 2.0318 6.6049 2.0318 3.1538 0 5.9781-1.074 7.371-2.8032l-1.5322-1.2344c-1.013 1.2575-3.3046 2.0702-5.8388 2.0702-5.1772 0-6.2479-2.7562-6.6049-3.0212-.4333.3216-1.4369 3.0212-6.6049 3.0212-5.1566 0-6.26-2.7656-6.6044-3.0212-.4333.3216-1.4369 3.0212-6.6049 3.0212-5.1772 0-6.2479-2.7562-6.6049-3.0212C54.1716 76.9382 53.168 79.6379 48 79.6379c-5.1772 0-6.2479-2.7562-6.6049-3.0212-.4333.3216-1.4369 3.0212-6.6049 3.0212-5.1772 0-6.2479-2.7562-6.6049-3.0212-.4333.3216-1.4364 3.0212-6.6044 3.0212-5.1772 0-6.2479-2.7562-6.6049-3.0212-.4333.3216-1.4369 3.0212-6.6049 3.0212-2.5342 0-4.8258-.8127-5.8388-2.0702L1 78.8021C2.3929 80.5313 5.2172 81.6053 8.371 81.6053zM8.371 76.0864c2.6538 0 5.0741-.7608 6.6049-2.0318 1.5308 1.2709 3.9511 2.0318 6.6049 2.0318 2.6533 0 5.0736-.7608 6.6044-2.0318 1.5308 1.2709 3.9511 2.0318 6.6049 2.0318 2.6538 0 5.0741-.7608 6.6049-2.0318 1.5308 1.2709 3.9511 2.0318 6.6049 2.0318s5.0741-.7608 6.6049-2.0318c1.5308 1.2709 3.9511 2.0318 6.6049 2.0318 2.6538 0 5.0741-.7608 6.6049-2.0318 1.5308 1.2709 3.9511 2.0318 6.6044 2.0318 2.6538 0 5.0741-.7608 6.6049-2.0318 1.5308 1.2709 3.9511 2.0318 6.6049 2.0318 3.1538 0 5.9781-1.074 7.371-2.8032l-1.5322-1.2344c-1.013 1.2575-3.3046 2.0702-5.8388 2.0702-5.1772 0-6.2479-2.7562-6.6049-3.0212-.4333.3216-1.4369 3.0212-6.6049 3.0212-5.1566 0-6.26-2.7656-6.6044-3.0212-.4333.3216-1.4369 3.0212-6.6049 3.0212-5.1772 0-6.2479-2.7562-6.6049-3.0212C54.1716 71.4193 53.168 74.119 48 74.119c-5.1772 0-6.2479-2.7562-6.6049-3.0212-.4333.3216-1.4369 3.0212-6.6049 3.0212-5.1772 0-6.2479-2.7562-6.6049-3.0212-.4333.3216-1.4364 3.0212-6.6044 3.0212-5.1772 0-6.2479-2.7562-6.6049-3.0212-.4333.3216-1.4369 3.0212-6.6049 3.0212-2.5342 0-4.8258-.8127-5.8388-2.0702L1 73.2832C2.3929 75.0124 5.2172 76.0864 8.371 76.0864z"></path>
  <rect width="3.001" height="1.967" x="53.858" y="12.91"></rect>
  <path d="M64.1018,8.7356c-0.9755-3.7926-4.3892-6.5112-8.4258-6.5112c-3.9209,0-7.3432,2.6595-8.3778,6.3446
		c-3.3524-0.617-6.4118,1.9462-6.4118,5.3249v0.9837h10.411v-1.9674h-8.3053c0.5354-1.8431,2.6289-3.038,4.6721-2.1927
		l1.1701,0.4832l0.1792-1.2532c0.4702-3.2811,3.3344-5.7557,6.6625-5.7557c3.4804,0,6.3628,2.611,6.7039,6.0737l0.1585,1.61
		l1.3564-0.8819c1.995-1.2972,4.5726-0.1889,5.1865,1.9165H59.0757v1.9674h12.1113v-0.9837
		C71.1871,10.0645,67.45,7.6567,64.1018,8.7356z"></path>
  <rect width="2.95" height="1.967" x="19.683" y="28.743"></rect>
  <path d="M6.9128,29.7267v0.9837h10.252V28.743H9.0219c0.5332-1.7885,2.5695-2.9486,4.565-2.124l1.1701,0.4832l0.1792-1.2532
		c0.4606-3.2177,3.2696-5.6443,6.5338-5.6443c3.4136,0,6.2399,2.5606,6.5742,5.9565l0.1585,1.61l1.3564-0.8819
		c1.9586-1.2719,4.4621-0.1763,5.0679,1.8536h-9.8144v1.9674H36.736v-0.9837c0-3.7433-3.6415-6.1495-6.9709-5.0924
		c-0.9659-3.7273-4.3243-6.3969-8.2952-6.3969c-3.857,0-7.2245,2.6125-8.2486,6.2351C9.918,23.8797,6.9128,26.3955,6.9128,29.7267z"></path>
  <rect width="2.872" height="1.967" x="75.327" y="32.936"></rect>
  <path d="M80.3218 34.9036h11.6353v-.9837c0-3.6638-3.5595-6.0045-6.7951-4.991-.953-3.6269-4.2264-6.2216-8.0949-6.2216-3.7585 0-7.042 2.5409-8.0502 6.0674-3.2011-.5689-6.1491 1.88-6.1491 5.1452v.9837h10.0075v-1.9674h-7.8931c.2161-.6974.6638-1.3002 1.2993-1.7253 1.9152-1.2825 3.6429.0381 4.2701.1897l.1792-1.2527c.4472-3.1202 3.1711-5.4733 6.3364-5.4733 3.3099 0 6.0506 2.4833 6.3753 5.7759l.1585 1.6096 1.3564-.8814c1.8687-1.2141 4.2788-.1961 4.8854 1.7575h-9.5209V34.9036zM12.0042 11.8827c.1734.4654.6071.7661 1.1052.7661.4976 0 .9313-.3007 1.1043-.7652.5764-1.5418 1.4924-2.1932 2.7153-1.9381l.4015-1.9261c-1.7071-.355-3.2086.2848-4.2211 1.7412-1.013-1.4563-2.5164-2.0961-4.2211-1.7412l.4015 1.9261C10.5152 9.6905 11.4278 10.3418 12.0042 11.8827zM25.9547 10.7722l.4016 1.9261c1.0721-.2233 1.8747.3545 2.3838 1.7172.171.4582.5985.7546 1.0889.7546.4909 0 .9184-.2964 1.0889-.7541.5096-1.3636 1.3094-1.9434 2.3843-1.7176l.4016-1.9261c-1.5577-.3252-2.9319.2373-3.8743 1.5269C28.8861 11.009 27.5123 10.4475 25.9547 10.7722zM22.993 4.7465c-1.2147-1.966-3.1005-2.8541-5.2547-2.405l.4015 1.9261c2.0937-.4395 3.1687 1.1705 3.7004 2.5933.1801.4851.6321.7988 1.1513.7993h.001c.5187 0 .9712-.3127 1.1518-.7973.5327-1.4251 1.6076-3.0328 3.7009-2.5952l.4015-1.9261C26.0911 1.891 24.2068 2.7806 22.993 4.7465z"></path>
</svg>
