<svg xmlns="http://www.w3.org/2000/svg" viewBox="0 0 64 64" id="sandwich">
  <g>
    <path d="M27,64H1a1,1,0,0,1-.865-1.5l36-62A1,1,0,0,1,37,0H63a1,1,0,0,1,.865,1.5l-36,62A1,1,0,0,1,27,64ZM2.737,62H26.424L61.263,2H37.576Z"></path>
    <polygon fill="#c69c6d" points="8.874 63 44.874 1 37 1 1 63 8.874 63"></polygon>
    <polygon fill="#c69c6d" points="26.874 63 62.874 1 55 1 19 63 26.874 63"></polygon>
    <polygon fill="#8cc63f" points="18.874 63 54.874 1 45 1 9 63 18.874 63"></polygon>
    <polygon fill="#fddead" points="63 0 63 62 27 62 63 0"></polygon>
    <polygon fill="#fee7c3" points="60 6.167 60 63 63 63 63 1 60 6.167"></polygon>
    <path d="M63.26.034a1.019,1.019,0,0,0-.342-.028C62.9.005,62.889,0,62.873,0H55c-.022,0-.042.007-.064.008S54.9,0,54.873,0H45c-.022,0-.042.007-.064.008S44.9,0,44.873,0H37a1,1,0,0,0-.865.5l-36,62A1,1,0,0,0,1,64H8.873c.022,0,.042-.007.064-.008S8.978,64,9,64h9.873c.022,0,.042-.007.064-.008S18.978,64,19,64h7.873c.022,0,.042-.007.064-.008S26.978,64,27,64H63a1,1,0,0,0,1-1V1A1,1,0,0,0,63.26.034ZM37.576,2h5.56L8.3,62H2.737Zm8,0h7.56L18.3,62h-7.56Zm10,0h5.56L26.3,62h-5.56ZM62,62H28.737L62,4.714Z"></path>
    <path fill="#c1272d" d="M16,60a1,1,0,0,1-1-1V58a3,3,0,0,1,3-3,1,1,0,0,0,1-1V51a3,3,0,0,1,3-3,1,1,0,0,0,1-1V44a3,3,0,0,1,3-3,1,1,0,0,0,1-1V37a3,3,0,0,1,3-3,1,1,0,0,0,1-1V30a3,3,0,0,1,3-3,1,1,0,0,0,1-1V23a3,3,0,0,1,3-3,1,1,0,0,0,1-1V16a3,3,0,0,1,3-3,1,1,0,0,0,1-1V9a3,3,0,0,1,3-3,1,1,0,0,0,1-1,1,1,0,0,1,2,0,3,3,0,0,1-3,3,1,1,0,0,0-1,1v3a3,3,0,0,1-3,3,1,1,0,0,0-1,1v3a3,3,0,0,1-3,3,1,1,0,0,0-1,1v3a3,3,0,0,1-3,3,1,1,0,0,0-1,1v3a3,3,0,0,1-3,3,1,1,0,0,0-1,1v3a3,3,0,0,1-3,3,1,1,0,0,0-1,1v3a3,3,0,0,1-3,3,1,1,0,0,0-1,1v3a3,3,0,0,1-3,3,1,1,0,0,0-1,1v1A1,1,0,0,1,16,60Z"></path>
  </g>
</svg>
